<?xml version="1.0" standalone="no"?><!DOCTYPE svg PUBLIC "-//W3C//DTD SVG 1.1//EN" "http://www.w3.org/Graphics/SVG/1.1/DTD/svg11.dtd"><svg t="1586310569593" class="icon" viewBox="0 0 1024 1024" version="1.1" xmlns="http://www.w3.org/2000/svg" p-id="1655" width="128" height="128" xmlns:xlink="http://www.w3.org/1999/xlink"><defs><style type="text/css"></style></defs><path d="M514.218667 83.114667c-12.8-10.752-31.232-10.752-44.032 0-13.141333 11.093333-320.341333 273.066667-320.341334 547.157333C149.674667 819.2 303.274667 972.8 492.202667 972.8 680.96 972.8 834.56 819.2 834.56 630.442667c0-274.090667-307.370667-536.234667-320.341333-547.328zM492.202667 904.533333c-151.210667 0-274.090667-123.050667-274.090667-274.090666 0-202.922667 205.482667-411.306667 274.090667-475.136 68.608 64 274.090667 272.384 274.090666 475.136C766.293333 781.482667 643.242667 904.533333 492.202667 904.533333z" p-id="1656" fill="#dbdbdb"></path><path d="M582.997333 574.122667l-101.717333-0.170667 64.853333-64.853333c13.312-13.312 13.312-34.986667 0-48.298667-13.312-13.312-34.986667-13.312-48.298666 0l-123.050667 122.88c-9.728 9.728-12.629333 24.405333-7.338667 37.205333s17.749333 20.992 31.402667 21.162667l101.717333 0.170667-64.853333 64.853333a34.2016 34.2016 0 0 0 24.064 58.368c8.704 0 17.408-3.413333 24.064-10.069333l122.88-122.88c9.728-9.728 12.629333-24.405333 7.338667-37.205334s-17.237333-21.162667-31.061334-21.162666z" p-id="1657" fill="#dbdbdb"></path></svg>