<?xml version="1.0" standalone="no"?><!DOCTYPE svg PUBLIC "-//W3C//DTD SVG 1.1//EN" "http://www.w3.org/Graphics/SVG/1.1/DTD/svg11.dtd"><svg class="icon" width="200px" height="199.80px" viewBox="0 0 1025 1024" version="1.1" xmlns="http://www.w3.org/2000/svg"><path d="M273.407805 208.749565c40.813685 0 74.020519-32.914262 74.020518-73.362233v-61.951956C347.428323 32.914262 314.294633 0 273.407805 0 232.59412 0 199.460429 32.914262 199.460429 73.435376v61.951956a73.581662 73.581662 0 0 0 73.947376 73.362233z m497.883073 0c40.886828 0 74.093661-32.914262 74.093661-73.362233v-61.951956A73.874233 73.874233 0 0 0 771.290878 0c-40.813685 0-74.020519 32.914262-74.020519 73.435376v61.951956c0 40.521114 33.206833 73.362233 74.020519 73.362233z m0 0"  /><path d="M950.344464 101.887927h-65.901667v32.109692c0 61.586242-50.468535 126.46391-112.859348 126.463909-62.244527 0-112.859348-64.950811-112.859348-126.463909v-32.109692H386.413438v32.109692c0 61.586242-50.468535 126.46391-112.859348 126.463909-62.31767 0-112.786205-59.830814-112.786205-121.417056v-35.401117l-85.577082-1.755428C33.791976 101.887927 0 135.021618 0 176.201017v773.338876C0 990.64615 33.791976 1023.999269 75.190803 1023.999269h875.153661a75.044518 75.044518 0 0 0 75.337089-74.459376V171.154163c-0.073143-41.106256-33.64569-69.266236-75.337089-69.266236z m10.093707 857.087388H67.510809v-639.999543H960.365028l0.073143 639.999543z m0 0"  /><path d="M312.758634 380.488871H713.142348v509.878493h-47.762252v-39.935971H360.520885v39.935971h-47.762251V380.488871z m47.762251 42.130256v167.862737h304.859211V422.619127H360.520885z m0 209.992993v176.932445h304.859211V632.61212H360.520885z"  /></svg>